<svg xmlns="http://www.w3.org/2000/svg" xmlns:xlink="http://www.w3.org/1999/xlink" width="742" zoomAndPan="magnify" viewBox="0 0 556.5 647.999998" height="864" preserveAspectRatio="xMidYMid meet" version="1.0"><defs><g/><clipPath id="8fb41fee06"><path d="M 0 0.296875 L 555.996094 0.296875 L 555.996094 647.515625 L 0 647.515625 Z M 0 0.296875 " clip-rule="nonzero"/></clipPath><clipPath id="4aadd3ba46"><path d="M 277.996094 647.277344 L -0.00390625 485.53125 L -0.00390625 162.039062 L 277.996094 0.296875 L 555.996094 162.039062 L 555.996094 485.53125 Z M 277.996094 647.277344 " clip-rule="nonzero"/></clipPath><clipPath id="f94112d0cb"><path d="M 0 0.296875 L 555.992188 0.296875 L 555.992188 646.964844 L 0 646.964844 Z M 0 0.296875 " clip-rule="nonzero"/></clipPath><clipPath id="6ef1f18600"><path d="M 277.996094 647.269531 L 0 485.527344 L 0 162.039062 L 277.996094 0.296875 L 555.992188 162.039062 L 555.992188 485.527344 Z M 277.996094 647.269531 " clip-rule="nonzero"/></clipPath><clipPath id="99c133fb38"><path d="M 141.464844 243.257812 L 178.90625 243.257812 L 178.90625 385.535156 L 141.464844 385.535156 Z M 141.464844 243.257812 " clip-rule="nonzero"/></clipPath><clipPath id="495be88d16"><path d="M 187.890625 198.328125 L 225.332031 198.328125 L 225.332031 385.535156 L 187.890625 385.535156 Z M 187.890625 198.328125 " clip-rule="nonzero"/></clipPath><clipPath id="fdea94d830"><path d="M 234.316406 220.792969 L 271.757812 220.792969 L 271.757812 385.535156 L 234.316406 385.535156 Z M 234.316406 220.792969 " clip-rule="nonzero"/></clipPath><clipPath id="849c66548b"><path d="M 280.746094 291.933594 L 318.1875 291.933594 L 318.1875 385.535156 L 280.746094 385.535156 Z M 280.746094 291.933594 " clip-rule="nonzero"/></clipPath><clipPath id="d513152672"><path d="M 327.171875 209.5625 L 364.613281 209.5625 L 364.613281 385.535156 L 327.171875 385.535156 Z M 327.171875 209.5625 " clip-rule="nonzero"/></clipPath><clipPath id="4aacc5e4a9"><path d="M 373.597656 243.257812 L 411.039062 243.257812 L 411.039062 385.535156 L 373.597656 385.535156 Z M 373.597656 243.257812 " clip-rule="nonzero"/></clipPath></defs><g clip-path="url(#8fb41fee06)"><g clip-path="url(#4aadd3ba46)"><path fill="#ffffff" d="M 555.996094 0.296875 L 555.996094 647.515625 L -0.00390625 647.515625 L -0.00390625 0.296875 Z M 555.996094 0.296875 " fill-opacity="1" fill-rule="nonzero"/></g></g><g clip-path="url(#f94112d0cb)"><g clip-path="url(#6ef1f18600)"><path stroke-linecap="butt" transform="matrix(0, 0.749327, -0.749327, 0, 555.992105, 0.295333)" fill="none" stroke-linejoin="miter" d="M 863.407296 370.994369 L 647.55729 741.988849 L 215.852064 741.988849 L 0.0020573 370.994369 L 215.852064 -0.000109909 L 647.55729 -0.000109909 Z M 863.407296 370.994369 " stroke="#333333" stroke-width="56" stroke-opacity="1" stroke-miterlimit="4"/></g></g><g clip-path="url(#99c133fb38)"><path fill="#d12229" d="M 141.464844 243.257812 L 178.90625 243.257812 L 178.90625 385.5625 L 141.464844 385.5625 Z M 141.464844 243.257812 " fill-opacity="1" fill-rule="nonzero"/></g><g clip-path="url(#495be88d16)"><path fill="#f68a1e" d="M 187.890625 198.328125 L 225.332031 198.328125 L 225.332031 385.535156 L 187.890625 385.535156 Z M 187.890625 198.328125 " fill-opacity="1" fill-rule="nonzero"/></g><g clip-path="url(#fdea94d830)"><path fill="#fde01a" d="M 234.316406 220.792969 L 271.757812 220.792969 L 271.757812 385.476562 L 234.316406 385.476562 Z M 234.316406 220.792969 " fill-opacity="1" fill-rule="nonzero"/></g><g clip-path="url(#849c66548b)"><path fill="#007940" d="M 280.746094 291.933594 L 318.1875 291.933594 L 318.1875 385.535156 L 280.746094 385.535156 Z M 280.746094 291.933594 " fill-opacity="1" fill-rule="nonzero"/></g><g clip-path="url(#d513152672)"><path fill="#24408e" d="M 327.171875 209.5625 L 364.613281 209.5625 L 364.613281 385.503906 L 327.171875 385.503906 Z M 327.171875 209.5625 " fill-opacity="1" fill-rule="nonzero"/></g><g clip-path="url(#4aacc5e4a9)"><path fill="#732982" d="M 373.597656 243.257812 L 411.039062 243.257812 L 411.039062 385.5625 L 373.597656 385.5625 Z M 373.597656 243.257812 " fill-opacity="1" fill-rule="nonzero"/></g><path stroke-linecap="butt" transform="matrix(0.748822, 0, 0, 0.748822, 115.272449, 382.539195)" fill="none" stroke-linejoin="miter" d="M 0.00131973 1.997752 L 423.645811 1.997752 " stroke="#333333" stroke-width="4" stroke-opacity="1" stroke-miterlimit="4"/><path stroke-linecap="round" transform="matrix(0.748822, 0, 0, 0.748822, 115.272449, 382.539195)" fill-opacity="1" fill="#333333" fill-rule="nonzero" stroke-linejoin="round" d="M 424.647384 -4.001252 L 432.644318 1.997752 L 424.647384 8.001973 Z M 424.647384 -4.001252 " stroke="#333333" stroke-width="4" stroke-opacity="1" stroke-miterlimit="4"/><path stroke-linecap="butt" transform="matrix(0, -0.748822, 0.748822, 0, 115.255413, 384.036854)" fill="none" stroke-linejoin="miter" d="M 0.0022666 2.001134 L 288.997795 2.001134 " stroke="#333333" stroke-width="4" stroke-opacity="1" stroke-miterlimit="4"/><path stroke-linecap="round" transform="matrix(0, -0.748822, 0.748822, 0, 115.255413, 384.036854)" fill-opacity="1" fill="#333333" fill-rule="nonzero" stroke-linejoin="round" d="M 289.999368 -3.99787 L 298.001518 2.001134 L 289.999368 8.000139 Z M 289.999368 -3.99787 " stroke="#333333" stroke-width="4" stroke-opacity="1" stroke-miterlimit="4"/><g fill="#333333" fill-opacity="1"><g transform="translate(127.615683, 464.560588)"><g><path d="M 46.703125 -43.015625 C 43.734375 -41.867188 39.359375 -41.296875 33.578125 -41.296875 C 36.429688 -40.035156 38.546875 -38.472656 39.921875 -36.609375 C 41.296875 -34.753906 41.984375 -32.425781 41.984375 -29.625 C 41.984375 -26.707031 41.222656 -24.085938 39.703125 -21.765625 C 38.191406 -19.441406 36.019531 -17.625 33.1875 -16.3125 C 30.351562 -15 27.046875 -14.34375 23.265625 -14.34375 C 21.265625 -14.34375 19.488281 -14.539062 17.9375 -14.9375 C 16.800781 -14.195312 16.234375 -13.195312 16.234375 -11.9375 C 16.234375 -11.019531 16.585938 -10.285156 17.296875 -9.734375 C 18.015625 -9.191406 19.40625 -8.921875 21.46875 -8.921875 L 28.421875 -8.921875 C 31.796875 -8.921875 34.753906 -8.363281 37.296875 -7.25 C 39.847656 -6.132812 41.820312 -4.585938 43.21875 -2.609375 C 44.625 -0.640625 45.328125 1.601562 45.328125 4.125 C 45.328125 8.757812 43.335938 12.378906 39.359375 14.984375 C 35.390625 17.585938 29.65625 18.890625 22.15625 18.890625 C 16.769531 18.890625 12.515625 18.332031 9.390625 17.21875 C 6.273438 16.101562 4.085938 14.484375 2.828125 12.359375 C 1.566406 10.242188 0.9375 7.582031 0.9375 4.375 L 11.84375 4.375 C 11.84375 5.863281 12.128906 7.050781 12.703125 7.9375 C 13.273438 8.820312 14.316406 9.476562 15.828125 9.90625 C 17.347656 10.34375 19.539062 10.5625 22.40625 10.5625 C 26.351562 10.5625 29.113281 10.070312 30.6875 9.09375 C 32.269531 8.125 33.0625 6.753906 33.0625 4.984375 C 33.0625 3.378906 32.457031 2.144531 31.25 1.28125 C 30.050781 0.425781 28.273438 0 25.921875 0 L 19.234375 0 C 14.710938 0 11.332031 -0.84375 9.09375 -2.53125 C 6.863281 -4.21875 5.75 -6.347656 5.75 -8.921875 C 5.75 -10.523438 6.21875 -12.085938 7.15625 -13.609375 C 8.101562 -15.128906 9.410156 -16.398438 11.078125 -17.421875 C 8.273438 -18.972656 6.226562 -20.789062 4.9375 -22.875 C 3.644531 -24.96875 3 -27.472656 3 -30.390625 C 3 -33.710938 3.816406 -36.617188 5.453125 -39.109375 C 7.085938 -41.597656 9.378906 -43.515625 12.328125 -44.859375 C 15.273438 -46.203125 18.632812 -46.875 22.40625 -46.875 C 27.101562 -46.757812 30.96875 -47.160156 34 -48.078125 C 37.03125 -48.992188 40.265625 -50.425781 43.703125 -52.375 Z M 22.671875 -38.71875 C 20.378906 -38.71875 18.5625 -37.988281 17.21875 -36.53125 C 15.875 -35.070312 15.203125 -33.082031 15.203125 -30.5625 C 15.203125 -27.988281 15.875 -25.957031 17.21875 -24.46875 C 18.5625 -22.976562 20.40625 -22.234375 22.75 -22.234375 C 25.207031 -22.234375 27.066406 -22.945312 28.328125 -24.375 C 29.585938 -25.8125 30.21875 -27.929688 30.21875 -30.734375 C 30.21875 -36.054688 27.703125 -38.71875 22.671875 -38.71875 Z M 22.671875 -38.71875 "/></g></g></g><g fill="#333333" fill-opacity="1"><g transform="translate(174.321956, 464.560588)"><g><path d="M 46.703125 -43.015625 C 43.734375 -41.867188 39.359375 -41.296875 33.578125 -41.296875 C 36.429688 -40.035156 38.546875 -38.472656 39.921875 -36.609375 C 41.296875 -34.753906 41.984375 -32.425781 41.984375 -29.625 C 41.984375 -26.707031 41.222656 -24.085938 39.703125 -21.765625 C 38.191406 -19.441406 36.019531 -17.625 33.1875 -16.3125 C 30.351562 -15 27.046875 -14.34375 23.265625 -14.34375 C 21.265625 -14.34375 19.488281 -14.539062 17.9375 -14.9375 C 16.800781 -14.195312 16.234375 -13.195312 16.234375 -11.9375 C 16.234375 -11.019531 16.585938 -10.285156 17.296875 -9.734375 C 18.015625 -9.191406 19.40625 -8.921875 21.46875 -8.921875 L 28.421875 -8.921875 C 31.796875 -8.921875 34.753906 -8.363281 37.296875 -7.25 C 39.847656 -6.132812 41.820312 -4.585938 43.21875 -2.609375 C 44.625 -0.640625 45.328125 1.601562 45.328125 4.125 C 45.328125 8.757812 43.335938 12.378906 39.359375 14.984375 C 35.390625 17.585938 29.65625 18.890625 22.15625 18.890625 C 16.769531 18.890625 12.515625 18.332031 9.390625 17.21875 C 6.273438 16.101562 4.085938 14.484375 2.828125 12.359375 C 1.566406 10.242188 0.9375 7.582031 0.9375 4.375 L 11.84375 4.375 C 11.84375 5.863281 12.128906 7.050781 12.703125 7.9375 C 13.273438 8.820312 14.316406 9.476562 15.828125 9.90625 C 17.347656 10.34375 19.539062 10.5625 22.40625 10.5625 C 26.351562 10.5625 29.113281 10.070312 30.6875 9.09375 C 32.269531 8.125 33.0625 6.753906 33.0625 4.984375 C 33.0625 3.378906 32.457031 2.144531 31.25 1.28125 C 30.050781 0.425781 28.273438 0 25.921875 0 L 19.234375 0 C 14.710938 0 11.332031 -0.84375 9.09375 -2.53125 C 6.863281 -4.21875 5.75 -6.347656 5.75 -8.921875 C 5.75 -10.523438 6.21875 -12.085938 7.15625 -13.609375 C 8.101562 -15.128906 9.410156 -16.398438 11.078125 -17.421875 C 8.273438 -18.972656 6.226562 -20.789062 4.9375 -22.875 C 3.644531 -24.96875 3 -27.472656 3 -30.390625 C 3 -33.710938 3.816406 -36.617188 5.453125 -39.109375 C 7.085938 -41.597656 9.378906 -43.515625 12.328125 -44.859375 C 15.273438 -46.203125 18.632812 -46.875 22.40625 -46.875 C 27.101562 -46.757812 30.96875 -47.160156 34 -48.078125 C 37.03125 -48.992188 40.265625 -50.425781 43.703125 -52.375 Z M 22.671875 -38.71875 C 20.378906 -38.71875 18.5625 -37.988281 17.21875 -36.53125 C 15.875 -35.070312 15.203125 -33.082031 15.203125 -30.5625 C 15.203125 -27.988281 15.875 -25.957031 17.21875 -24.46875 C 18.5625 -22.976562 20.40625 -22.234375 22.75 -22.234375 C 25.207031 -22.234375 27.066406 -22.945312 28.328125 -24.375 C 29.585938 -25.8125 30.21875 -27.929688 30.21875 -30.734375 C 30.21875 -36.054688 27.703125 -38.71875 22.671875 -38.71875 Z M 22.671875 -38.71875 "/></g></g></g><g fill="#333333" fill-opacity="1"><g transform="translate(221.028228, 464.560588)"><g><path d="M 17.34375 1.375 C 13.625 1.375 10.734375 0.300781 8.671875 -1.84375 C 6.609375 -3.988281 5.578125 -7.035156 5.578125 -10.984375 L 5.578125 -63.625 L 17.765625 -65 L 17.765625 -11.328125 C 17.765625 -9.328125 18.597656 -8.328125 20.265625 -8.328125 C 21.179688 -8.328125 21.984375 -8.5 22.671875 -8.84375 L 25.15625 -0.171875 C 22.8125 0.859375 20.207031 1.375 17.34375 1.375 Z M 17.34375 1.375 "/></g></g></g><g fill="#333333" fill-opacity="1"><g transform="translate(246.441928, 464.560588)"><g><path d="M 46.703125 -43.015625 C 43.734375 -41.867188 39.359375 -41.296875 33.578125 -41.296875 C 36.429688 -40.035156 38.546875 -38.472656 39.921875 -36.609375 C 41.296875 -34.753906 41.984375 -32.425781 41.984375 -29.625 C 41.984375 -26.707031 41.222656 -24.085938 39.703125 -21.765625 C 38.191406 -19.441406 36.019531 -17.625 33.1875 -16.3125 C 30.351562 -15 27.046875 -14.34375 23.265625 -14.34375 C 21.265625 -14.34375 19.488281 -14.539062 17.9375 -14.9375 C 16.800781 -14.195312 16.234375 -13.195312 16.234375 -11.9375 C 16.234375 -11.019531 16.585938 -10.285156 17.296875 -9.734375 C 18.015625 -9.191406 19.40625 -8.921875 21.46875 -8.921875 L 28.421875 -8.921875 C 31.796875 -8.921875 34.753906 -8.363281 37.296875 -7.25 C 39.847656 -6.132812 41.820312 -4.585938 43.21875 -2.609375 C 44.625 -0.640625 45.328125 1.601562 45.328125 4.125 C 45.328125 8.757812 43.335938 12.378906 39.359375 14.984375 C 35.390625 17.585938 29.65625 18.890625 22.15625 18.890625 C 16.769531 18.890625 12.515625 18.332031 9.390625 17.21875 C 6.273438 16.101562 4.085938 14.484375 2.828125 12.359375 C 1.566406 10.242188 0.9375 7.582031 0.9375 4.375 L 11.84375 4.375 C 11.84375 5.863281 12.128906 7.050781 12.703125 7.9375 C 13.273438 8.820312 14.316406 9.476562 15.828125 9.90625 C 17.347656 10.34375 19.539062 10.5625 22.40625 10.5625 C 26.351562 10.5625 29.113281 10.070312 30.6875 9.09375 C 32.269531 8.125 33.0625 6.753906 33.0625 4.984375 C 33.0625 3.378906 32.457031 2.144531 31.25 1.28125 C 30.050781 0.425781 28.273438 0 25.921875 0 L 19.234375 0 C 14.710938 0 11.332031 -0.84375 9.09375 -2.53125 C 6.863281 -4.21875 5.75 -6.347656 5.75 -8.921875 C 5.75 -10.523438 6.21875 -12.085938 7.15625 -13.609375 C 8.101562 -15.128906 9.410156 -16.398438 11.078125 -17.421875 C 8.273438 -18.972656 6.226562 -20.789062 4.9375 -22.875 C 3.644531 -24.96875 3 -27.472656 3 -30.390625 C 3 -33.710938 3.816406 -36.617188 5.453125 -39.109375 C 7.085938 -41.597656 9.378906 -43.515625 12.328125 -44.859375 C 15.273438 -46.203125 18.632812 -46.875 22.40625 -46.875 C 27.101562 -46.757812 30.96875 -47.160156 34 -48.078125 C 37.03125 -48.992188 40.265625 -50.425781 43.703125 -52.375 Z M 22.671875 -38.71875 C 20.378906 -38.71875 18.5625 -37.988281 17.21875 -36.53125 C 15.875 -35.070312 15.203125 -33.082031 15.203125 -30.5625 C 15.203125 -27.988281 15.875 -25.957031 17.21875 -24.46875 C 18.5625 -22.976562 20.40625 -22.234375 22.75 -22.234375 C 25.207031 -22.234375 27.066406 -22.945312 28.328125 -24.375 C 29.585938 -25.8125 30.21875 -27.929688 30.21875 -30.734375 C 30.21875 -36.054688 27.703125 -38.71875 22.671875 -38.71875 Z M 22.671875 -38.71875 "/></g></g></g><g fill="#333333" fill-opacity="1"><g transform="translate(293.148201, 464.560588)"><g><path d="M 30.65625 -46.875 C 35.976562 -46.875 40.113281 -44.753906 43.0625 -40.515625 C 46.007812 -36.285156 47.484375 -30.363281 47.484375 -22.75 C 47.484375 -18.0625 46.75 -13.898438 45.28125 -10.265625 C 43.820312 -6.628906 41.734375 -3.78125 39.015625 -1.71875 C 36.296875 0.34375 33.109375 1.375 29.453125 1.375 C 24.472656 1.375 20.492188 -0.570312 17.515625 -4.46875 L 16.828125 0 L 6.015625 0 L 6.015625 -63.625 L 18.203125 -65 L 18.203125 -40.609375 C 19.628906 -42.554688 21.429688 -44.085938 23.609375 -45.203125 C 25.785156 -46.316406 28.132812 -46.875 30.65625 -46.875 Z M 26.015625 -7.640625 C 31.847656 -7.640625 34.765625 -12.675781 34.765625 -22.75 C 34.765625 -28.300781 34.0625 -32.207031 32.65625 -34.46875 C 31.257812 -36.726562 29.242188 -37.859375 26.609375 -37.859375 C 23.347656 -37.859375 20.546875 -35.914062 18.203125 -32.03125 L 18.203125 -12.53125 C 20.203125 -9.269531 22.804688 -7.640625 26.015625 -7.640625 Z M 26.015625 -7.640625 "/></g></g></g><g fill="#333333" fill-opacity="1"><g transform="translate(344.319024, 464.560588)"><g><path d="M 33.234375 -2.140625 C 31.566406 -0.992188 29.6875 -0.125 27.59375 0.46875 C 25.507812 1.070312 23.4375 1.375 21.375 1.375 C 16.6875 1.3125 13.140625 -0.03125 10.734375 -2.65625 C 8.328125 -5.289062 7.125 -9.15625 7.125 -14.25 L 7.125 -36.921875 L 0.34375 -36.921875 L 0.34375 -45.5 L 7.125 -45.5 L 7.125 -55.46875 L 19.3125 -56.921875 L 19.3125 -45.5 L 29.796875 -45.5 L 28.59375 -36.921875 L 19.3125 -36.921875 L 19.3125 -14.515625 C 19.3125 -12.335938 19.679688 -10.757812 20.421875 -9.78125 C 21.171875 -8.8125 22.320312 -8.328125 23.875 -8.328125 C 25.414062 -8.328125 27.128906 -8.84375 29.015625 -9.875 Z M 33.234375 -2.140625 "/></g></g></g><g fill="#333333" fill-opacity="1"><g transform="translate(376.94473, 464.560588)"><g><path d="M 45.421875 -45.5 L 45.421875 18.890625 L 33.234375 17.515625 L 33.234375 -4.640625 C 30.078125 -0.628906 25.984375 1.375 20.953125 1.375 C 15.335938 1.375 11.054688 -0.785156 8.109375 -5.109375 C 5.160156 -9.429688 3.6875 -15.3125 3.6875 -22.75 C 3.6875 -27.445312 4.445312 -31.613281 5.96875 -35.25 C 7.488281 -38.882812 9.632812 -41.726562 12.40625 -43.78125 C 15.1875 -45.84375 18.4375 -46.875 22.15625 -46.875 C 26.789062 -46.875 30.796875 -45.015625 34.171875 -41.296875 L 34.859375 -45.5 Z M 24.5625 -7.734375 C 26.332031 -7.734375 27.90625 -8.175781 29.28125 -9.0625 C 30.65625 -9.945312 31.972656 -11.332031 33.234375 -13.21875 L 33.234375 -33.578125 C 32.023438 -35.003906 30.816406 -36.070312 29.609375 -36.78125 C 28.410156 -37.5 27.015625 -37.859375 25.421875 -37.859375 C 22.609375 -37.859375 20.398438 -36.628906 18.796875 -34.171875 C 17.203125 -31.710938 16.40625 -27.90625 16.40625 -22.75 C 16.40625 -17.3125 17.101562 -13.445312 18.5 -11.15625 C 19.90625 -8.875 21.925781 -7.734375 24.5625 -7.734375 Z M 24.5625 -7.734375 "/></g></g></g></svg>